<svg width="16" height="16" viewBox="0 0 16 16" fill="none" xmlns="http://www.w3.org/2000/svg">
<path fill-rule="evenodd" clip-rule="evenodd" d="M4.83351 4.83337V4.75346C4.83351 3.30829 5.81191 2.04647 7.21154 1.68656C7.72888 1.55353 8.27146 1.55353 8.7888 1.68656C10.1884 2.04647 11.1668 3.3083 11.1668 4.75346V4.83337H12.1676C12.5484 4.83337 12.8717 5.1127 12.9269 5.48953L13.0727 6.48449C13.3597 8.44347 13.3597 10.4338 13.0727 12.3928C12.9341 13.3388 12.1712 14.0702 11.2202 14.1688L10.8009 14.2123C8.93875 14.4054 7.06159 14.4054 5.19942 14.2123L4.78017 14.1688C3.82915 14.0702 3.06629 13.3388 2.92767 12.3928C2.64065 10.4338 2.64065 8.44347 2.92767 6.48449L3.07346 5.48953C3.12867 5.11269 3.4519 4.83337 3.83275 4.83337H4.83351ZM7.46058 2.65506C7.81455 2.56404 8.18579 2.56404 8.53976 2.65506C9.4974 2.90131 10.1668 3.76466 10.1668 4.75346V4.83337H5.83351V4.75346C5.83351 3.76466 6.50294 2.90131 7.46058 2.65506ZM4.83351 5.83337V7.33337C4.83351 7.60952 5.05736 7.83337 5.33351 7.83337C5.60965 7.83337 5.83351 7.60952 5.83351 7.33337V5.83337H10.1668V7.33337C10.1668 7.60952 10.3907 7.83337 10.6668 7.83337C10.943 7.83337 11.1668 7.60952 11.1668 7.33337V5.83337H11.9666L12.0832 6.62947C12.3562 8.4923 12.3562 10.385 12.0832 12.2478C12.0109 12.7412 11.613 13.1227 11.117 13.1741L10.6978 13.2176C8.90418 13.4036 7.09616 13.4036 5.30257 13.2176L4.88332 13.1741C4.38729 13.1227 3.98941 12.7412 3.91711 12.2478C3.64417 10.385 3.64417 8.4923 3.91711 6.62947L4.03375 5.83337H4.83351Z" fill="#6B7683"/>
</svg>
